<svg width="35" height="35" viewBox="0 0 35 35" fill="none" xmlns="http://www.w3.org/2000/svg">
<ellipse cx="17.3462" cy="17.474" rx="17.3462" ry="17.474" fill="#892911"/>
<path d="M25.8419 12.8002C25.8442 12.7286 25.8454 12.6568 25.8454 12.5846C25.8454 9.0644 23.059 6.21069 19.6218 6.21069C16.8951 6.21069 14.578 8.00647 13.7365 10.5062C13.1322 10.1832 12.445 10.0006 11.7161 10.0006C9.30078 10.0006 7.34277 12.0059 7.34277 14.4796C7.34277 16.9532 9.30078 18.9586 11.7161 18.9586L19.6218 18.9586C19.6245 18.9586 19.6273 18.9586 19.6301 18.9586H24.3315C26.0965 18.9586 27.5274 17.4931 27.5274 15.6855C27.5274 14.4373 26.8452 13.3523 25.8419 12.8002Z" fill="white" stroke="white" stroke-width="0.3"/>
<path fill-rule="evenodd" clip-rule="evenodd" d="M21.5659 20.2068C21.2714 20.1101 20.9557 20.271 20.8608 20.566L18.9475 26.5166C18.8526 26.8116 19.0144 27.1292 19.3089 27.2259C19.6034 27.3226 19.9191 27.1618 20.0139 26.8667L21.9273 20.9162C22.0222 20.6211 21.8604 20.3035 21.5659 20.2068ZM14.8138 20.2068C14.5193 20.1101 14.2036 20.271 14.1087 20.566L12.1954 26.5166C12.1005 26.8116 12.2623 27.1292 12.5568 27.2259C12.8513 27.3226 13.167 27.1618 13.2618 26.8667L15.1752 20.9162C15.2701 20.6211 15.1083 20.3035 14.8138 20.2068ZM16.3737 20.566C16.4686 20.271 16.7843 20.1101 17.0788 20.2068C17.3733 20.3035 17.5351 20.6211 17.4402 20.9162L15.9885 25.431C15.8936 25.7261 15.578 25.8869 15.2835 25.7902C14.989 25.6935 14.8272 25.3759 14.922 25.0808L16.3737 20.566ZM23.7927 20.2068C23.4982 20.1101 23.1825 20.271 23.0876 20.566L21.6359 25.0808C21.541 25.3759 21.7029 25.6935 21.9974 25.7902C22.2919 25.8869 22.6075 25.7261 22.7024 25.431L24.1541 20.9162C24.249 20.6211 24.0872 20.3035 23.7927 20.2068ZM11.858 20.566C11.9529 20.271 12.2686 20.1101 12.5631 20.2068C12.8576 20.3035 13.0194 20.6211 12.9245 20.9162L11.9344 23.9953C11.8396 24.2903 11.5239 24.4512 11.2294 24.3545C10.9349 24.2578 10.7731 23.9402 10.868 23.6451L11.858 20.566ZM19.3343 20.2068C19.0398 20.1101 18.7241 20.271 18.6292 20.566L17.6392 23.6451C17.5443 23.9402 17.7061 24.2578 18.0006 24.3545C18.2951 24.4512 18.6108 24.2903 18.7057 23.9953L19.6957 20.9162C19.7906 20.6211 19.6288 20.3035 19.3343 20.2068Z" fill="white"/>
</svg>
