<svg width="163" height="130" viewBox="0 0 163 130" fill="none" xmlns="http://www.w3.org/2000/svg">
<path d="M121.75 129H162V113C162 99.7452 151.188 89 137.85 89C130.157 89 123.305 92.5744 118.882 98.1431M121.75 129H41.25M121.75 129V113C121.75 107.75 120.732 102.736 118.882 98.1431M41.25 129H1V113C1 99.7452 11.8123 89 25.15 89C32.8426 89 39.6952 92.5744 44.1178 98.1431M41.25 129V113C41.25 107.75 42.2677 102.736 44.1178 98.1431M44.1178 98.1431C50.0527 83.4082 64.5533 73 81.5 73C98.4467 73 112.947 83.4082 118.882 98.1431M105.65 25C105.65 38.2548 94.8377 49 81.5 49C68.1623 49 57.35 38.2548 57.35 25C57.35 11.7452 68.1623 1 81.5 1C94.8377 1 105.65 11.7452 105.65 25ZM153.95 49C153.95 57.8366 146.742 65 137.85 65C128.958 65 121.75 57.8366 121.75 49C121.75 40.1634 128.958 33 137.85 33C146.742 33 153.95 40.1634 153.95 49ZM41.25 49C41.25 57.8366 34.0418 65 25.15 65C16.2582 65 9.05 57.8366 9.05 49C9.05 40.1634 16.2582 33 25.15 33C34.0418 33 41.25 40.1634 41.25 49Z" stroke="black" stroke-width="2" stroke-linecap="round" stroke-linejoin="round"/>
</svg>
