<svg width="22" height="22" viewBox="0 0 22 22" fill="none" xmlns="http://www.w3.org/2000/svg">
<path d="M16.1858 15.2688C15.354 16.1005 13.6431 17.8115 12.4137 19.0408C11.6327 19.8219 10.3676 19.8215 9.58653 19.0404C8.37895 17.8329 6.70082 16.1547 5.81488 15.2688C2.95103 12.4049 2.95103 7.76173 5.81488 4.89788C8.67872 2.03404 13.3219 2.03404 16.1858 4.89788C19.0496 7.76173 19.0496 12.4049 16.1858 15.2688Z" stroke="#545F71" stroke-width="2" stroke-linecap="round" stroke-linejoin="round"/>
<path d="M13.7503 10.0833C13.7503 11.6021 12.5191 12.8333 11.0003 12.8333C9.48154 12.8333 8.25033 11.6021 8.25033 10.0833C8.25033 8.56455 9.48154 7.33333 11.0003 7.33333C12.5191 7.33333 13.7503 8.56455 13.7503 10.0833Z" stroke="#545F71" stroke-width="2" stroke-linecap="round" stroke-linejoin="round"/>
</svg>
