<svg xmlns="http://www.w3.org/2000/svg" xmlns:xlink="http://www.w3.org/1999/xlink" id="Lag_1" x="0px" y="0px" viewBox="0 0 2834.6 674.1" style="enable-background:new 0 0 2834.6 674.1;" xml:space="preserve">
<style type="text/css">
	.st0{fill:#FFFFFF;}
	.st1{fill:#F37236;}
</style>
<path class="st0" d="M162.7,391.5c-9.9,0-23.6-1.9-30.4-4.3c-1.2-0.6-1.9-1.2-1.9-2.5c0-1.9,1.2-2.5,2.5-2.5  c4.3,1.2,17.4,3.7,27.3,3.7c62.7,0,101.8-52.2,101.8-101.2c0-34.8-16.8-47.2-46.6-47.2c-9.9,0-11.2,0.6-18.6,2.5  c-6.2,1.9-11.2,5-14.3,10.6C150.3,303.9,95,406.4,68.3,461.1c-4.4,8.7-6.2,16.1-6.2,22.4c0,15.5,13,21.1,39.7,21.1  c5.6,0,6.8,0.6,6.8,1.9c0,1.2-0.6,1.9-3.1,2.5c-14.9,2.5-57.1,4.3-75.2,4.3C23,513.2,0,511.4,0,498.3c0-3.1,1.2-6.8,3.1-11.2  c11.2-25.5,32.9-60.2,50.3-89.4c20.5-34.2,47.2-82,65.2-115.5c3.1-5.6,14.9-29.8,14.9-35.4c0-1.9-0.6-2.5-3.1-2.5  c-26.1,0.6-51.6,5.6-77.6,5.6c-6.8,0-11.8-2.5-11.8-6.8c0-1.9,3.7-11.8,6.2-11.8c0.6,0,1.2,0.6,1.9,2.5c0.6,2.5,3.7,3.7,7.5,4.4  c7.5,1.2,19.3,1.9,29.2,1.9c50.3,0,122.3-8.7,142.8-8.7c40.4,0,83.2,12.4,83.2,55.9C311.8,335.6,259,391.5,162.7,391.5"></path>
<path class="st0" d="M350.3,305.2c2.5-6.8,5.6-17.4,6.8-24.8c0.6-8.1,3.1-10.6,7.5-13c22.4-11.8,50.3-19.9,76.4-25.5  c24.2-5,52.8-7.5,82-7.5c73.9,0,114.9,13,114.9,49.7c0,36.6-33.5,78.9-118.6,86.3c-5,0.6-5.6,4.4-4.4,7.5  c15.5,28.6,44.7,75.2,79.5,123.6c36.6,49.7,80.1,96.3,145.3,96.3c24.8,0,44.1-6.8,67.7-19.2c1.9-1.2,3.7-1.2,3.7,1.2  c0,1.2-0.6,2.5-2.5,3.1c-26.1,13.7-55.3,23.6-88.2,23.6c-93.8,0-137.9-36-195.6-124.8c-16.1-26.1-49.7-83.8-64.6-108.7  c0-1.9,0.6-2.5,1.9-2.5c73.9,0,123.6-27.9,123.6-84.5c0-20.5-5.6-44.7-49.7-44.7c-8.1,0-11.2,1.9-16.8,8.1  c-28,32.2-129.2,211-150.9,259.5c-0.6,1.2-1.2,1.2-2.5,1.2c-3.7-0.6-21.7-1.2-25.5-1.2c-4.3,0-12.4,0-19.3,1.2  c-4.3,2.5-13,6.2-18,11.8c-1.2,0-3.7-1.2-2.5-2.5C377,408.3,426.6,323.8,465.2,251.8c2.5-6.2,0.6-7.5-3.1-7.5  c-24.8,1.2-50.3,10.6-72,22.4c-14.3,8.1-27.3,23.6-36,39.7C352.7,307,350.3,306.4,350.3,305.2"></path>
<path class="st0" d="M789.3,515.7c-62.7,0-120.5-11.8-120.5-80.7c0-52.8,43.5-122.3,83.2-155.9c37.3-32.3,86.3-46.6,136-46.6  c54,0,119.9,16.8,119.9,79.5C1007.9,415.1,903.6,515.7,789.3,515.7 M885.6,237.5c-41,0-74.5,16.8-101.8,49.7  c-29.8,35.4-68.3,103.7-68.3,154c0,52.8,29.8,68.9,73.3,68.9c91.3,0,172.6-113.6,172.6-202.4C961.4,256.7,930.3,237.5,885.6,237.5"></path>
<path class="st1" d="M970.1,542.2c1.1-23.5,20.3-43.8,48.1-74.8c157-177.3,320.4-339.7,436.9-433.7c9.6-8.5,72.6-17.1,90.8-31  c9.6-7.5,8.5,2.1,5.3,7.5c-13.9,21.4-22.4,53.4-25.6,71.6c-4.3,18.2-59.8,298-59.8,346.1s25.6,50.2,33.1,50.2s17.1-3.2,28.8-5.4  c11.7-2.1,12.8,4.3,1.1,6.4c-11.7,2.1-101.5,31-130.3,36.3c-11.8,0-17.1-5.3-21.4-21.4c3.2-16,20.3-127.1,21.4-143.1  c0-16-12.8-34.2-43.8-40.6c-9.6-2.1-40.6-5.3-80.1-5.3c-41.7,0-64.1,0-83.3-2.1c-95.1,92.9-156,181.6-184.8,237.1  c-9.6,18.2-12.8,38.5-16,62c-1.1,4.3-3.2,5.3-6.4,3.2L970.1,542.2z M1307.6,295.4c45.9,0,74.8,2.1,85.5,4.3  c9.6,2.1,13.9,1.1,17.1-8.5c11.7-57.7,37.4-211.5,39.5-222.2c3.2-10.7,0-12.8-10.7-3.2c-54.5,44.9-170.9,152.7-225.4,213.6  C1218.9,293.3,1272.3,295.4,1307.6,295.4"></path>
<path class="st0" d="M1816.8,236.9c-18.6,0-29.2,8.1-37.9,21.7c-9.3,14.9-19.9,36-28.6,52.2c-15.5,29.8-41.6,78.3-67.7,118.6  c-20.5,32.3-44.7,52.2-67.1,64.6c-5,2.5-6.8,5.6,0.6,5.6c46.6-6.2,132.9-14.3,152.1-14.3c8.1,0,31.1,0.6,37.3,1.9  c6.8,1.9,9.9,3.7,9.9,8.7c0,3.7-8.1,25.5-11.2,31.7c-1.2,0-1.2-0.6-1.2-2.5c0-3.7-0.6-8.7-5.6-10.6c-25.5-9.3-64.6-11.8-91.9-11.8  c-96.3,0-132.9,6.2-154,12.4c-3.1-0.6-6.2-4.4-6.2-6.8c0-3.1,1.2-3.7,5-3.7c14.9,0,26.7-1.2,34.8-6.2c13-8.1,23.6-21.1,41-49.7  c34.2-57.1,73.3-145.9,102.5-199.3c1.9-3.7,6.2-6.2,9.9-7.5c17.4-6.8,77-11.2,97.5-11.2c3.7,1.9,3.1,7.5,0.6,8.7  C1831.7,238.1,1825.5,236.9,1816.8,236.9"></path>
<path class="st0" d="M1878.2,497.7c30.4-37.3,126.7-189.4,142.8-238.5c0.6-1.9,1.2-4.3,1.2-6.8c0-5.6-6.2-6.8-16.8-6.8  c-9.9,0-23.6,0.6-34.2,3.1l-1.9-0.6c0.6-3.1,1.9-5.6,3.7-7.5c55.9-1.2,92.5-5,116.7-10.6c1.9,1.2,3.1,3.1,3.1,5  c0,1.2-1.2,1.9-3.7,2.5c-6.2,1.9-9.9,8.1-14.3,15.5c-34.2,64-96.9,172.6-141.6,236c-6.2,8.7-14.3,14.9-24.8,17.4  c-9.3,2.5-33.5,5.6-46.6,5c-1.2-0.6-1.2-1.9-1.2-3.1C1867.1,507.6,1874.5,502.7,1878.2,497.7"></path>
<path class="st0" d="M2064.6,664.1c0-3.1,1.2-3.7,3.1-2.5c8.7,5,21.7,8.1,33.5,8.1c85.7,0,157.7-140.4,195-209.3  c0-2.5-1.2-3.7-3.7-1.2c-15.5,13-57.1,59-131,59c-71.4,0-98.1-27.9-98.1-71.4c0-34.8,40.4-152.8,170.8-199.4  c39.1-13,53.4-12.4,80.7-12.4s72,5.6,86.3,22.4c-3.1,14.3-14.9,42.2-21.1,57.1l-4.4,1.2l-0.6-1.9c1.2-5,2.5-9.9,2.5-15.5  c0-30.4-36-56.5-80.7-56.5c-42.2,0-83.2,22.4-109.9,52.8c-31.7,35.4-77,113-77,167.7c0,32.9,18,50.9,55.3,50.9  c72.7,0,141.6-67.1,159.6-116.7c3.1-8.1,4.4-12.4-5-12.4c-14.3,0.6-33.5,2.5-55.9,4.3l-1.9-0.6l1.9-6.8c33.5,0,101.9-4.3,131-11.8  c1.9,1.2,1.2,3.7,0,5.6c-13,3.1-17.4,6.8-23,18c-27.9,58.4-82.6,159-123,204.3c-23,26.1-72,77-145.3,77c-14.3,0-33.5-3.7-38.5-8.1  L2064.6,664.1z"></path>
<path class="st0" d="M2413.6,519.4c-3.1-2.5-13.7-20.5-13.7-27.3c0-8.1,6.8-19.9,12.4-29.2c9.9-17.4,28-47.8,62.7-105.6  c19.3-31.7,33.5-57.8,41-77c1.9-5,3.1-11.2,3.1-16.8c0-10.6-4.3-16.1-15.5-16.1c-9.9,0-21.7,0.6-30.4,1.2c-3.1,0-5.6-5-5.6-8.7  c0-1.9,0.6-2.5,1.9-2.5c8.1,2.5,21.7,3.7,32.9,3.7c22.4,0,49.7-9.9,59.6-13c3.1,0,4.3,1.9,5,5.6c0.6,7.5,2.5,21.7,5,31.1  c11.2,45.3,42.8,119.2,61.5,170.8c3.1,7.5,5,9.9,8.1,9.9c2.5,0,4.4-4.4,6.8-9.3c38.5-78.3,71.4-145.9,113.7-210.5  c15.5-23.6,29.2-39.1,49.1-39.1c11.2,0,21.1,10.6,23.6,17.4c0,1.2-0.6,1.2-1.9,1.2c-26.7,0-49.7,9.9-72.7,42.9  c-37.9,53.4-77.6,130.4-109.9,201.8c-9.3,21.1-22.4,50.9-31.1,68.9c-1.2,2.5-2.5,4.3-3.7,4.3c-1.9,0-3.7-1.9-5.6-4.3  c-19.3-68.9-59-175.1-76.4-218.6c-2.5-5.6-4.4-8.1-6.8-8.1s-5,2.5-8.1,7.5c-33.5,51.6-70.2,114.3-90.1,159.6  c-6.2,14.3-13,43.5-13,60.2H2413.6z"></path>
</svg>